<svg width="66" height="66" viewBox="0 0 66 66" fill="none" xmlns="http://www.w3.org/2000/svg">
<path d="M32.7643 2.28882e-05C14.6689 2.28882e-05 0 14.7745 0 33C0 51.2256 14.6689 66 32.7643 66C50.8592 66 65.5286 51.2256 65.5286 33C65.5286 14.7745 50.8592 2.28882e-05 32.7643 2.28882e-05Z" fill="#8E7A45"/>
<path fill-rule="evenodd" clip-rule="evenodd" d="M42.9698 15.1558C43.7489 15.0221 44.466 15.0797 45.1207 15.3289C45.7863 15.569 46.3294 15.9398 46.75 16.4412C47.4813 17.313 47.7526 18.1345 47.5639 18.9056C47.3861 19.6675 47.0028 20.2953 46.4144 20.789C45.8259 21.2826 45.1382 21.5256 44.3514 21.5173C43.5754 21.4998 42.8901 21.1365 42.2958 20.428C41.6833 19.6979 41.4641 18.9718 41.6384 18.25C41.8145 17.5082 42.1859 16.8995 42.7525 16.4241C43.2757 15.9853 43.9346 15.7299 44.7285 15.6581C45.1102 15.614 45.4616 15.6533 45.7823 15.7759C45.2852 15.4751 44.6991 15.2892 44.0245 15.2179C42.915 15.0905 41.8153 15.4837 40.7255 16.3979C40.2132 16.8276 39.7796 17.3957 39.4249 18.1018C39.3857 18.1767 39.3486 18.2528 39.3135 18.3301C39.9173 18.9206 40.4151 19.5895 40.8051 20.3383C41.5306 21.7039 41.893 23.1623 41.893 24.7128H29.308C29.3052 24.9315 29.3034 25.1519 29.3034 25.3739C29.3034 26.8249 29.3604 28.1836 29.4742 29.4496C29.6023 30.7157 29.8298 31.8325 30.157 32.7998C30.4842 33.7529 30.9393 34.4999 31.5225 35.0405C32.12 35.5811 32.8813 35.8512 33.806 35.8512C35.769 35.8512 37.4619 35.2752 38.8844 34.123C40.3212 32.9707 41.3026 31.4981 41.829 29.7056H41.9358C41.381 31.555 40.3282 33.1059 38.7776 34.3578C37.227 35.6095 35.1074 36.2356 32.4188 36.2356C30.7118 36.2356 29.1589 35.9751 27.7593 35.4562C27.7383 35.4706 27.7173 35.4846 27.6967 35.4986C27.3569 35.7298 27.1871 36.0191 27.1871 36.3659C27.1872 36.8715 27.5198 37.2109 28.1852 37.3843C28.8507 37.5432 29.7642 37.6228 30.9254 37.6228H32.5187C33.085 37.6083 33.6372 37.6011 34.1752 37.6011C34.7132 37.5867 35.1806 37.5795 35.577 37.5795C36.37 37.5795 37.1988 37.7026 38.0626 37.9483C38.9263 38.1795 39.7263 38.5839 40.4626 39.1618C41.2131 39.7254 41.8151 40.4986 42.2682 41.4812C42.7355 42.4494 42.9693 43.6705 42.9693 45.1444C42.9693 46.5462 42.6929 47.7385 42.1407 48.7211C41.5884 49.7037 40.8096 50.4985 39.8042 51.1054C38.813 51.7124 37.6587 52.1531 36.3417 52.4276C35.039 52.7166 33.6371 52.8613 32.1362 52.8613C30.8334 52.8613 29.5588 52.7602 28.3127 52.5579C27.0807 52.3701 25.9619 52.0664 24.9565 51.6473C23.9654 51.2427 23.1725 50.708 22.5778 50.0433C21.983 49.3786 21.6856 48.5766 21.6855 47.6374C21.6855 46.7704 21.9546 46.0623 22.4926 45.5132C23.0448 44.9641 23.7175 44.5305 24.5104 44.2126C25.3034 43.9092 26.0897 43.6994 26.8685 43.5838C27.4547 43.4967 27.9567 43.4423 28.3744 43.4208C27.1357 43.2621 26.0673 42.9698 25.1692 42.5433C23.7532 41.8641 23.045 40.7441 23.045 39.1834C23.0451 38.2443 23.3071 37.4714 23.8309 36.8645C24.369 36.2431 25.0771 35.7588 25.9551 35.412C26.2579 35.2924 26.5702 35.1863 26.8915 35.0925C26.8847 35.0893 26.8776 35.0865 26.8708 35.0833C25.2633 34.3009 23.9973 33.1484 23.0727 31.6263C22.148 30.1042 21.6856 28.2265 21.6855 25.9931C21.6855 23.7597 22.1336 21.8816 23.0299 20.3595C23.9403 18.8373 25.1924 17.6923 26.7856 16.9241C28.3789 16.1417 30.2139 15.7506 32.2908 15.7506C34.4105 15.7506 36.1815 16.1774 37.6041 17.0309C38.1987 17.3817 38.7304 17.7792 39.2007 18.2219C39.2359 18.1469 39.2732 18.0732 39.3126 18.0009C39.6855 17.3168 40.1281 16.7599 40.6403 16.3302C41.4141 15.6811 42.1907 15.2895 42.9698 15.1558ZM28.7533 43.4645C28.3141 43.7423 27.962 44.1725 27.6967 44.7545C27.4277 45.3903 27.2934 46.1416 27.2934 47.0085C27.2934 47.9767 27.5058 48.8874 27.9306 49.74C28.3554 50.6069 29.021 51.3079 29.9273 51.8425C30.8335 52.3771 32.0016 52.6445 33.4317 52.6445C34.3237 52.6445 35.2373 52.5434 36.1718 52.3411C37.1206 52.1388 38.006 51.8207 38.8273 51.3872C39.6486 50.9681 40.3142 50.4191 40.824 49.74C41.3479 49.0608 41.6098 48.2516 41.6098 47.3124C41.6098 46.2865 41.3053 45.506 40.6965 44.9713C40.0876 44.4367 39.3228 44.0678 38.4024 43.8655C37.4961 43.6632 36.5827 43.5621 35.6622 43.5621H30.7555C30.0469 43.5621 29.3795 43.5293 28.7533 43.4645ZM32.2908 15.8569C31.7076 15.8569 31.2169 16.1202 30.8186 16.6465C30.4345 17.1728 30.1286 17.8915 29.901 18.802C29.6734 19.6982 29.5168 20.7154 29.4314 21.8534C29.3641 22.7399 29.3236 23.6575 29.3094 24.606H34.7235C34.7093 23.6102 34.6805 22.607 34.6379 21.597C34.5952 20.5728 34.496 19.6269 34.3395 18.7592C34.1831 17.8915 33.9411 17.1945 33.614 16.6681C33.2868 16.1276 32.8456 15.8569 32.2908 15.8569Z" fill="#EBFC72"/>
</svg>
